<svg preserveAspectRatio="none" overflow="visible" style="display: block;" width="19.6312" height="20.3636" viewBox="0 0 19.6312 20.3636" fill="none" xmlns="http://www.w3.org/2000/svg">
<g id="ps:linkedin" clip-path="url(#clip0_0_4)">
<path id="Vector" d="M19.5466 11.6242V18.8364H15.4003V12.0909C15.4003 10.196 14.6952 9.24848 13.2849 9.24848C12.2413 9.24848 11.5221 9.75758 11.1272 10.7758C11.0426 10.9737 11.0002 11.3131 11.0002 11.7939V18.8364H6.81169C6.8399 11.2283 6.8399 7.02828 6.81169 6.23636H11.0002V8.01818L10.9579 8.06061H11.0002V8.01818C11.9028 6.63232 13.158 5.93939 14.7657 5.93939C16.2042 5.93939 17.3606 6.4202 18.235 7.38182C19.1094 8.34343 19.5466 9.75758 19.5466 11.6242ZM2.4539 0.169697C1.74876 0.169697 1.17759 0.374747 0.740401 0.784848C0.303212 1.19495 0.0846173 1.71111 0.0846173 2.33333C0.0846173 2.95556 0.29616 3.47879 0.719247 3.90303C1.14233 4.32727 1.69235 4.53939 2.36928 4.53939H2.41159C3.11674 4.53939 3.6879 4.32727 4.12509 3.90303C4.56228 3.47879 4.78088 2.95556 4.78088 2.33333C4.75267 1.71111 4.52702 1.19495 4.10394 0.784848C3.68085 0.374747 3.13084 0.169697 2.4539 0.169697ZM0.29616 18.8364H4.48472V6.23636H0.29616V18.8364Z" fill="white"/>
</g>
<defs>
<clipPath id="clip0_0_4">
<rect width="19.6312" height="20.3636" fill="white"/>
</clipPath>
</defs>
</svg>
