<svg preserveAspectRatio="none" overflow="visible" style="display: block;" width="19.6312" height="20.3636" viewBox="0 0 19.6312 20.3636" fill="none" xmlns="http://www.w3.org/2000/svg">
<g id="mdi:youtube">
<path id="Vector" d="M8.17967 12.7273L12.4249 10.1818L8.17967 7.63636V12.7273ZM17.6354 6.08364C17.7417 6.48242 17.8153 7.01697 17.8644 7.69576C17.9217 8.37454 17.9462 8.96 17.9462 9.46909L17.9953 10.1818C17.9953 12.04 17.8644 13.4061 17.6354 14.28C17.4309 15.0436 16.9565 15.5358 16.2203 15.7479C15.8358 15.8582 15.1324 15.9345 14.0527 15.9855C12.9893 16.0448 12.0159 16.0703 11.1162 16.0703L9.8156 16.1212C6.38832 16.1212 4.25343 15.9855 3.41092 15.7479C2.67475 15.5358 2.20033 15.0436 1.99584 14.28C1.8895 13.8812 1.81589 13.3467 1.76681 12.6679C1.70955 11.9891 1.68501 11.4036 1.68501 10.8945L1.63593 10.1818C1.63593 8.32364 1.76681 6.95758 1.99584 6.08364C2.20033 5.32 2.67475 4.82788 3.41092 4.61576C3.79537 4.50545 4.49882 4.42909 5.57853 4.37818C6.64189 4.31879 7.61527 4.29333 8.51504 4.29333L9.8156 4.24242C13.2429 4.24242 15.3778 4.37818 16.2203 4.61576C16.9565 4.82788 17.4309 5.32 17.6354 6.08364Z" fill="white"/>
</g>
</svg>
